<svg xmlns="http://www.w3.org/2000/svg" xmlns:xlink="http://www.w3.org/1999/xlink" width="500" zoomAndPan="magnify" viewBox="0 0 375 374.999991" height="500" preserveAspectRatio="xMidYMid meet" version="1.0"><defs><g/><clipPath id="dd5ed94f43"><path d="M 165.816406 0 L 213.816406 0 L 213.816406 375 L 165.816406 375 Z M 165.816406 0 " clip-rule="nonzero"/></clipPath><clipPath id="ef21956a9a"><path d="M 71 237 L 81 237 L 81 259 L 71 259 Z M 71 237 " clip-rule="nonzero"/></clipPath><clipPath id="6b78f6f82e"><path d="M 18.800781 234.824219 L 121.175781 211.488281 L 144.511719 313.863281 L 42.136719 337.195312 Z M 18.800781 234.824219 " clip-rule="nonzero"/></clipPath><clipPath id="1239490441"><path d="M 18.800781 234.824219 L 121.175781 211.488281 L 144.511719 313.863281 L 42.136719 337.195312 Z M 18.800781 234.824219 " clip-rule="nonzero"/></clipPath><clipPath id="833486ebe0"><path d="M 34 243 L 132 243 L 132 327 L 34 327 Z M 34 243 " clip-rule="nonzero"/></clipPath><clipPath id="274bfe59cb"><path d="M 18.800781 234.824219 L 121.175781 211.488281 L 144.511719 313.863281 L 42.136719 337.195312 Z M 18.800781 234.824219 " clip-rule="nonzero"/></clipPath><clipPath id="de05759ff5"><path d="M 18.800781 234.824219 L 121.175781 211.488281 L 144.511719 313.863281 L 42.136719 337.195312 Z M 18.800781 234.824219 " clip-rule="nonzero"/></clipPath><clipPath id="4d550bbc63"><path d="M 75 222 L 97 222 L 97 248 L 75 248 Z M 75 222 " clip-rule="nonzero"/></clipPath><clipPath id="5915245f80"><path d="M 18.800781 234.824219 L 121.175781 211.488281 L 144.511719 313.863281 L 42.136719 337.195312 Z M 18.800781 234.824219 " clip-rule="nonzero"/></clipPath><clipPath id="5510da0acb"><path d="M 18.800781 234.824219 L 121.175781 211.488281 L 144.511719 313.863281 L 42.136719 337.195312 Z M 18.800781 234.824219 " clip-rule="nonzero"/></clipPath><clipPath id="1ff736fd02"><path d="M 267 66 L 327 66 L 327 135 L 267 135 Z M 267 66 " clip-rule="nonzero"/></clipPath><clipPath id="004bed4f12"><path d="M 257 26.070312 L 364.058594 52.398438 L 335.402344 168.925781 L 228.34375 142.597656 Z M 257 26.070312 " clip-rule="nonzero"/></clipPath><clipPath id="7ec418f7d2"><path d="M 257 26.070312 L 364.058594 52.398438 L 335.402344 168.925781 L 228.34375 142.597656 Z M 257 26.070312 " clip-rule="nonzero"/></clipPath><clipPath id="2e75a563a4"><path d="M 266 64 L 329 64 L 329 136 L 266 136 Z M 266 64 " clip-rule="nonzero"/></clipPath><clipPath id="65fdcfbe81"><path d="M 257 26.070312 L 364.058594 52.398438 L 335.402344 168.925781 L 228.34375 142.597656 Z M 257 26.070312 " clip-rule="nonzero"/></clipPath><clipPath id="7144a839fa"><path d="M 257 26.070312 L 364.058594 52.398438 L 335.402344 168.925781 L 228.34375 142.597656 Z M 257 26.070312 " clip-rule="nonzero"/></clipPath><clipPath id="82ff3ee2dd"><path d="M 269 125 L 307 125 L 307 141 L 269 141 Z M 269 125 " clip-rule="nonzero"/></clipPath><clipPath id="089f27ca4b"><path d="M 257 26.070312 L 364.058594 52.398438 L 335.402344 168.925781 L 228.34375 142.597656 Z M 257 26.070312 " clip-rule="nonzero"/></clipPath><clipPath id="e250f4f2cc"><path d="M 257 26.070312 L 364.058594 52.398438 L 335.402344 168.925781 L 228.34375 142.597656 Z M 257 26.070312 " clip-rule="nonzero"/></clipPath><clipPath id="fd01720505"><path d="M 268 123 L 309 123 L 309 143 L 268 143 Z M 268 123 " clip-rule="nonzero"/></clipPath><clipPath id="858c307b8c"><path d="M 257 26.070312 L 364.058594 52.398438 L 335.402344 168.925781 L 228.34375 142.597656 Z M 257 26.070312 " clip-rule="nonzero"/></clipPath><clipPath id="5dd0c2284e"><path d="M 257 26.070312 L 364.058594 52.398438 L 335.402344 168.925781 L 228.34375 142.597656 Z M 257 26.070312 " clip-rule="nonzero"/></clipPath><clipPath id="e79200014b"><path d="M 270 133 L 303 133 L 303 148 L 270 148 Z M 270 133 " clip-rule="nonzero"/></clipPath><clipPath id="75cb7aa191"><path d="M 257 26.070312 L 364.058594 52.398438 L 335.402344 168.925781 L 228.34375 142.597656 Z M 257 26.070312 " clip-rule="nonzero"/></clipPath><clipPath id="5b25f79d11"><path d="M 257 26.070312 L 364.058594 52.398438 L 335.402344 168.925781 L 228.34375 142.597656 Z M 257 26.070312 " clip-rule="nonzero"/></clipPath><clipPath id="1d0a4c64d9"><path d="M 268 132 L 304 132 L 304 149 L 268 149 Z M 268 132 " clip-rule="nonzero"/></clipPath><clipPath id="5d064d12d7"><path d="M 257 26.070312 L 364.058594 52.398438 L 335.402344 168.925781 L 228.34375 142.597656 Z M 257 26.070312 " clip-rule="nonzero"/></clipPath><clipPath id="5c8b62bd27"><path d="M 257 26.070312 L 364.058594 52.398438 L 335.402344 168.925781 L 228.34375 142.597656 Z M 257 26.070312 " clip-rule="nonzero"/></clipPath><clipPath id="4dd742dca9"><path d="M 271 141 L 299 141 L 299 154 L 271 154 Z M 271 141 " clip-rule="nonzero"/></clipPath><clipPath id="4bd0272cbf"><path d="M 257 26.070312 L 364.058594 52.398438 L 335.402344 168.925781 L 228.34375 142.597656 Z M 257 26.070312 " clip-rule="nonzero"/></clipPath><clipPath id="871dc2c9f6"><path d="M 257 26.070312 L 364.058594 52.398438 L 335.402344 168.925781 L 228.34375 142.597656 Z M 257 26.070312 " clip-rule="nonzero"/></clipPath><clipPath id="9f4c4ab09e"><path d="M 269 139 L 300 139 L 300 155 L 269 155 Z M 269 139 " clip-rule="nonzero"/></clipPath><clipPath id="85c8a34f46"><path d="M 257 26.070312 L 364.058594 52.398438 L 335.402344 168.925781 L 228.34375 142.597656 Z M 257 26.070312 " clip-rule="nonzero"/></clipPath><clipPath id="2b518c6fef"><path d="M 257 26.070312 L 364.058594 52.398438 L 335.402344 168.925781 L 228.34375 142.597656 Z M 257 26.070312 " clip-rule="nonzero"/></clipPath><clipPath id="009de17f43"><path d="M 276 149 L 292 149 L 292 155 L 276 155 Z M 276 149 " clip-rule="nonzero"/></clipPath><clipPath id="7d1a9b7e4b"><path d="M 257 26.070312 L 364.058594 52.398438 L 335.402344 168.925781 L 228.34375 142.597656 Z M 257 26.070312 " clip-rule="nonzero"/></clipPath><clipPath id="4828ed7fb7"><path d="M 257 26.070312 L 364.058594 52.398438 L 335.402344 168.925781 L 228.34375 142.597656 Z M 257 26.070312 " clip-rule="nonzero"/></clipPath><clipPath id="1c4ed5d20e"><path d="M 274 147 L 293 147 L 293 157 L 274 157 Z M 274 147 " clip-rule="nonzero"/></clipPath><clipPath id="96d4a8d217"><path d="M 257 26.070312 L 364.058594 52.398438 L 335.402344 168.925781 L 228.34375 142.597656 Z M 257 26.070312 " clip-rule="nonzero"/></clipPath><clipPath id="9036526247"><path d="M 257 26.070312 L 364.058594 52.398438 L 335.402344 168.925781 L 228.34375 142.597656 Z M 257 26.070312 " clip-rule="nonzero"/></clipPath><clipPath id="b2cf57c2ed"><path d="M 304 40 L 313 40 L 313 59 L 304 59 Z M 304 40 " clip-rule="nonzero"/></clipPath><clipPath id="840483acc3"><path d="M 257 26.070312 L 364.058594 52.398438 L 335.402344 168.925781 L 228.34375 142.597656 Z M 257 26.070312 " clip-rule="nonzero"/></clipPath><clipPath id="4922ec2c6f"><path d="M 257 26.070312 L 364.058594 52.398438 L 335.402344 168.925781 L 228.34375 142.597656 Z M 257 26.070312 " clip-rule="nonzero"/></clipPath><clipPath id="44b499ebce"><path d="M 303 39 L 315 39 L 315 60 L 303 60 Z M 303 39 " clip-rule="nonzero"/></clipPath><clipPath id="e59c8abf0e"><path d="M 257 26.070312 L 364.058594 52.398438 L 335.402344 168.925781 L 228.34375 142.597656 Z M 257 26.070312 " clip-rule="nonzero"/></clipPath><clipPath id="be0634497b"><path d="M 257 26.070312 L 364.058594 52.398438 L 335.402344 168.925781 L 228.34375 142.597656 Z M 257 26.070312 " clip-rule="nonzero"/></clipPath><clipPath id="0a03355cfa"><path d="M 331 103 L 349 103 L 349 112 L 331 112 Z M 331 103 " clip-rule="nonzero"/></clipPath><clipPath id="ff4a6cd7bb"><path d="M 257 26.070312 L 364.058594 52.398438 L 335.402344 168.925781 L 228.34375 142.597656 Z M 257 26.070312 " clip-rule="nonzero"/></clipPath><clipPath id="195bd8636a"><path d="M 257 26.070312 L 364.058594 52.398438 L 335.402344 168.925781 L 228.34375 142.597656 Z M 257 26.070312 " clip-rule="nonzero"/></clipPath><clipPath id="580e3746f7"><path d="M 329 101 L 351 101 L 351 113 L 329 113 Z M 329 101 " clip-rule="nonzero"/></clipPath><clipPath id="289ac08e4f"><path d="M 257 26.070312 L 364.058594 52.398438 L 335.402344 168.925781 L 228.34375 142.597656 Z M 257 26.070312 " clip-rule="nonzero"/></clipPath><clipPath id="d208d09ec3"><path d="M 257 26.070312 L 364.058594 52.398438 L 335.402344 168.925781 L 228.34375 142.597656 Z M 257 26.070312 " clip-rule="nonzero"/></clipPath><clipPath id="de78a8656c"><path d="M 244 81 L 262 81 L 262 90 L 244 90 Z M 244 81 " clip-rule="nonzero"/></clipPath><clipPath id="a109620ff4"><path d="M 257 26.070312 L 364.058594 52.398438 L 335.402344 168.925781 L 228.34375 142.597656 Z M 257 26.070312 " clip-rule="nonzero"/></clipPath><clipPath id="17fdf93bb6"><path d="M 257 26.070312 L 364.058594 52.398438 L 335.402344 168.925781 L 228.34375 142.597656 Z M 257 26.070312 " clip-rule="nonzero"/></clipPath><clipPath id="9c95c0b652"><path d="M 242 80 L 264 80 L 264 92 L 242 92 Z M 242 80 " clip-rule="nonzero"/></clipPath><clipPath id="a821d5fd14"><path d="M 257 26.070312 L 364.058594 52.398438 L 335.402344 168.925781 L 228.34375 142.597656 Z M 257 26.070312 " clip-rule="nonzero"/></clipPath><clipPath id="9d6f8cd17b"><path d="M 257 26.070312 L 364.058594 52.398438 L 335.402344 168.925781 L 228.34375 142.597656 Z M 257 26.070312 " clip-rule="nonzero"/></clipPath><clipPath id="434ea0e8a4"><path d="M 254 59 L 269 59 L 269 73 L 254 73 Z M 254 59 " clip-rule="nonzero"/></clipPath><clipPath id="364963440d"><path d="M 257 26.070312 L 364.058594 52.398438 L 335.402344 168.925781 L 228.34375 142.597656 Z M 257 26.070312 " clip-rule="nonzero"/></clipPath><clipPath id="68e99d0d25"><path d="M 257 26.070312 L 364.058594 52.398438 L 335.402344 168.925781 L 228.34375 142.597656 Z M 257 26.070312 " clip-rule="nonzero"/></clipPath><clipPath id="bac2675697"><path d="M 252 57 L 271 57 L 271 75 L 252 75 Z M 252 57 " clip-rule="nonzero"/></clipPath><clipPath id="12fffd0e44"><path d="M 257 26.070312 L 364.058594 52.398438 L 335.402344 168.925781 L 228.34375 142.597656 Z M 257 26.070312 " clip-rule="nonzero"/></clipPath><clipPath id="6abbc9376d"><path d="M 257 26.070312 L 364.058594 52.398438 L 335.402344 168.925781 L 228.34375 142.597656 Z M 257 26.070312 " clip-rule="nonzero"/></clipPath><clipPath id="4fd874c7b9"><path d="M 332 81 L 351 81 L 351 90 L 332 90 Z M 332 81 " clip-rule="nonzero"/></clipPath><clipPath id="a1cfdaf1b5"><path d="M 257 26.070312 L 364.058594 52.398438 L 335.402344 168.925781 L 228.34375 142.597656 Z M 257 26.070312 " clip-rule="nonzero"/></clipPath><clipPath id="5a61e35bce"><path d="M 257 26.070312 L 364.058594 52.398438 L 335.402344 168.925781 L 228.34375 142.597656 Z M 257 26.070312 " clip-rule="nonzero"/></clipPath><clipPath id="6217037ef6"><path d="M 331 80 L 352 80 L 352 92 L 331 92 Z M 331 80 " clip-rule="nonzero"/></clipPath><clipPath id="834eb05bac"><path d="M 257 26.070312 L 364.058594 52.398438 L 335.402344 168.925781 L 228.34375 142.597656 Z M 257 26.070312 " clip-rule="nonzero"/></clipPath><clipPath id="ba7ff310ad"><path d="M 257 26.070312 L 364.058594 52.398438 L 335.402344 168.925781 L 228.34375 142.597656 Z M 257 26.070312 " clip-rule="nonzero"/></clipPath><clipPath id="3b0e59225a"><path d="M 242 102 L 260 102 L 260 111 L 242 111 Z M 242 102 " clip-rule="nonzero"/></clipPath><clipPath id="23bad745cb"><path d="M 257 26.070312 L 364.058594 52.398438 L 335.402344 168.925781 L 228.34375 142.597656 Z M 257 26.070312 " clip-rule="nonzero"/></clipPath><clipPath id="5ada43b8c9"><path d="M 257 26.070312 L 364.058594 52.398438 L 335.402344 168.925781 L 228.34375 142.597656 Z M 257 26.070312 " clip-rule="nonzero"/></clipPath><clipPath id="77af8057f5"><path d="M 241 101 L 262 101 L 262 113 L 241 113 Z M 241 101 " clip-rule="nonzero"/></clipPath><clipPath id="a40961ecf2"><path d="M 257 26.070312 L 364.058594 52.398438 L 335.402344 168.925781 L 228.34375 142.597656 Z M 257 26.070312 " clip-rule="nonzero"/></clipPath><clipPath id="374e154b31"><path d="M 257 26.070312 L 364.058594 52.398438 L 335.402344 168.925781 L 228.34375 142.597656 Z M 257 26.070312 " clip-rule="nonzero"/></clipPath><clipPath id="edc01a550e"><path d="M 324 119 L 339 119 L 339 134 L 324 134 Z M 324 119 " clip-rule="nonzero"/></clipPath><clipPath id="e59d66807c"><path d="M 257 26.070312 L 364.058594 52.398438 L 335.402344 168.925781 L 228.34375 142.597656 Z M 257 26.070312 " clip-rule="nonzero"/></clipPath><clipPath id="6f93d11acd"><path d="M 257 26.070312 L 364.058594 52.398438 L 335.402344 168.925781 L 228.34375 142.597656 Z M 257 26.070312 " clip-rule="nonzero"/></clipPath><clipPath id="4944f783dd"><path d="M 322 118 L 341 118 L 341 135 L 322 135 Z M 322 118 " clip-rule="nonzero"/></clipPath><clipPath id="3a8e2c3d11"><path d="M 257 26.070312 L 364.058594 52.398438 L 335.402344 168.925781 L 228.34375 142.597656 Z M 257 26.070312 " clip-rule="nonzero"/></clipPath><clipPath id="1bd56e04ad"><path d="M 257 26.070312 L 364.058594 52.398438 L 335.402344 168.925781 L 228.34375 142.597656 Z M 257 26.070312 " clip-rule="nonzero"/></clipPath><clipPath id="7e4ffd1f2f"><path d="M 323 57 L 338 57 L 338 71 L 323 71 Z M 323 57 " clip-rule="nonzero"/></clipPath><clipPath id="9b50d7ff6a"><path d="M 257 26.070312 L 364.058594 52.398438 L 335.402344 168.925781 L 228.34375 142.597656 Z M 257 26.070312 " clip-rule="nonzero"/></clipPath><clipPath id="cba9790cf2"><path d="M 257 26.070312 L 364.058594 52.398438 L 335.402344 168.925781 L 228.34375 142.597656 Z M 257 26.070312 " clip-rule="nonzero"/></clipPath><clipPath id="a3292c4b93"><path d="M 321 55 L 340 55 L 340 73 L 321 73 Z M 321 55 " clip-rule="nonzero"/></clipPath><clipPath id="5660e9f672"><path d="M 257 26.070312 L 364.058594 52.398438 L 335.402344 168.925781 L 228.34375 142.597656 Z M 257 26.070312 " clip-rule="nonzero"/></clipPath><clipPath id="700a103076"><path d="M 257 26.070312 L 364.058594 52.398438 L 335.402344 168.925781 L 228.34375 142.597656 Z M 257 26.070312 " clip-rule="nonzero"/></clipPath><clipPath id="842039ecae"><path d="M 278 43 L 288 43 L 288 61 L 278 61 Z M 278 43 " clip-rule="nonzero"/></clipPath><clipPath id="3db4699915"><path d="M 257 26.070312 L 364.058594 52.398438 L 335.402344 168.925781 L 228.34375 142.597656 Z M 257 26.070312 " clip-rule="nonzero"/></clipPath><clipPath id="34e7d33ba4"><path d="M 257 26.070312 L 364.058594 52.398438 L 335.402344 168.925781 L 228.34375 142.597656 Z M 257 26.070312 " clip-rule="nonzero"/></clipPath><clipPath id="c167fc8bae"><path d="M 276 42 L 289 42 L 289 63 L 276 63 Z M 276 42 " clip-rule="nonzero"/></clipPath><clipPath id="37486e94af"><path d="M 257 26.070312 L 364.058594 52.398438 L 335.402344 168.925781 L 228.34375 142.597656 Z M 257 26.070312 " clip-rule="nonzero"/></clipPath><clipPath id="e4ccb15130"><path d="M 257 26.070312 L 364.058594 52.398438 L 335.402344 168.925781 L 228.34375 142.597656 Z M 257 26.070312 " clip-rule="nonzero"/></clipPath></defs><g clip-path="url(#dd5ed94f43)"><path fill="#ece1cd" d="M 165.816406 -7.589844 L 213.816406 -7.589844 L 213.816406 383.160156 L 165.816406 383.160156 Z M 165.816406 -7.589844 " fill-opacity="1" fill-rule="nonzero"/></g><g clip-path="url(#ef21956a9a)"><g clip-path="url(#6b78f6f82e)"><g clip-path="url(#1239490441)"><path fill="#275252" d="M 71.328125 238.09375 L 75.519531 237.136719 L 80.269531 257.976562 L 76.078125 258.929688 Z M 71.328125 238.09375 " fill-opacity="1" fill-rule="nonzero"/></g></g></g><g clip-path="url(#833486ebe0)"><g clip-path="url(#274bfe59cb)"><g clip-path="url(#de05759ff5)"><path fill="#ece1cd" d="M 114.796875 246.554688 C 114.671875 246.480469 114.484375 246.371094 114.25 246.238281 C 112.746094 245.40625 111.175781 244.730469 109.53125 244.214844 C 107.890625 243.695312 106.214844 243.34375 104.503906 243.164062 C 102.789062 242.980469 101.074219 242.96875 99.359375 243.128906 C 97.644531 243.285156 95.960938 243.613281 94.308594 244.109375 C 88.765625 245.851562 85.378906 249.675781 80.890625 254.535156 C 79.574219 255.953125 78.550781 257.21875 77.8125 258.167969 C 76.5 257.425781 75.152344 256.753906 73.769531 256.152344 C 68.917969 254.019531 63.621094 251.632812 57.167969 252.558594 C 55.464844 252.824219 53.804688 253.257812 52.191406 253.855469 C 50.574219 254.453125 49.03125 255.203125 47.566406 256.109375 C 46.101562 257.015625 44.742188 258.058594 43.484375 259.234375 C 42.230469 260.410156 41.105469 261.703125 40.109375 263.105469 L 39.75 263.621094 C 29.015625 279.515625 36.609375 312.996094 59.429688 323.585938 C 73.398438 330.0625 87.871094 325.394531 92.710938 323.582031 L 92.832031 323.5 L 92.980469 323.523438 C 98.125 323.058594 113.191406 321.007812 122.992188 309.144531 C 138.992188 289.730469 131.347656 256.238281 114.796875 246.554688 Z M 114.796875 246.554688 " fill-opacity="1" fill-rule="nonzero"/></g></g></g><g clip-path="url(#4d550bbc63)"><g clip-path="url(#5915245f80)"><g clip-path="url(#5510da0acb)"><path fill="#275252" d="M 95.132812 223.34375 C 95.519531 223.640625 95.847656 224.015625 96.109375 224.457031 C 96.371094 224.902344 96.566406 225.410156 96.691406 225.984375 C 96.816406 226.554688 96.875 227.183594 96.863281 227.859375 C 96.847656 228.539062 96.765625 229.257812 96.613281 230.015625 C 96.457031 230.773438 96.238281 231.554688 95.953125 232.363281 C 95.664062 233.171875 95.316406 233.992188 94.90625 234.820312 C 94.496094 235.648438 94.035156 236.46875 93.515625 237.285156 C 93 238.101562 92.4375 238.894531 91.835938 239.667969 C 91.230469 240.441406 90.59375 241.175781 89.925781 241.875 C 89.257812 242.574219 88.574219 243.222656 87.867188 243.824219 C 87.160156 244.421875 86.449219 244.960938 85.730469 245.433594 C 85.011719 245.910156 84.304688 246.316406 83.601562 246.648438 C 82.902344 246.984375 82.222656 247.242188 81.566406 247.421875 C 80.90625 247.601562 80.285156 247.699219 79.695312 247.71875 C 79.105469 247.738281 78.5625 247.675781 78.066406 247.535156 C 77.566406 247.390625 77.125 247.167969 76.738281 246.867188 C 76.351562 246.570312 76.023438 246.199219 75.761719 245.753906 C 75.5 245.308594 75.304688 244.800781 75.179688 244.226562 C 75.054688 243.65625 74.996094 243.03125 75.007812 242.351562 C 75.023438 241.671875 75.105469 240.957031 75.257812 240.199219 C 75.414062 239.441406 75.632812 238.65625 75.917969 237.847656 C 76.207031 237.039062 76.554688 236.21875 76.964844 235.390625 C 77.375 234.5625 77.835938 233.742188 78.355469 232.925781 C 78.871094 232.109375 79.433594 231.316406 80.035156 230.542969 C 80.640625 229.769531 81.277344 229.035156 81.945312 228.335938 C 82.613281 227.636719 83.296875 226.988281 84.003906 226.390625 C 84.710938 225.789062 85.421875 225.253906 86.140625 224.777344 C 86.859375 224.300781 87.566406 223.894531 88.269531 223.5625 C 88.96875 223.226562 89.648438 222.96875 90.304688 222.789062 C 90.964844 222.609375 91.585938 222.511719 92.175781 222.492188 C 92.765625 222.472656 93.308594 222.535156 93.804688 222.679688 C 94.304688 222.820312 94.746094 223.042969 95.132812 223.34375 Z M 95.132812 223.34375 " fill-opacity="1" fill-rule="nonzero"/></g></g></g><g clip-path="url(#1ff736fd02)"><g clip-path="url(#004bed4f12)"><g clip-path="url(#7ec418f7d2)"><path fill="#ece1cd" d="M 325.765625 102.992188 C 329.660156 87.148438 320.054688 71.160156 304.289062 67.15625 C 288.460938 63.390625 272.535156 73.101562 268.636719 88.945312 C 266.964844 95.75 267.796875 102.578125 270.527344 108.476562 L 270.507812 108.476562 C 270.507812 108.476562 272.789062 113.308594 275.835938 121.269531 C 276.492188 122.988281 276.113281 125.371094 275.414062 127.632812 L 301.820312 134.125 C 302.253906 131.796875 303.019531 129.511719 304.398438 128.296875 C 310.789062 122.65625 315.046875 119.429688 315.046875 119.429688 L 315.039062 119.421875 C 320.191406 115.464844 324.09375 109.800781 325.765625 102.992188 " fill-opacity="1" fill-rule="nonzero"/></g></g></g><g clip-path="url(#2e75a563a4)"><g clip-path="url(#65fdcfbe81)"><g clip-path="url(#7144a839fa)"><path fill="#275252" d="M 325.765625 102.992188 L 327.207031 103.347656 C 329.253906 95.035156 327.75 86.667969 323.671875 79.871094 C 319.597656 73.070312 312.925781 67.816406 304.65625 65.714844 L 304.632812 65.710938 C 296.328125 63.734375 287.984375 65.296875 281.21875 69.429688 C 274.449219 73.5625 269.242188 80.277344 267.199219 88.589844 C 265.4375 95.734375 266.316406 102.914062 269.179688 109.101562 L 270.527344 108.476562 L 270.34375 107 L 270.328125 107.003906 C 269.851562 107.0625 269.4375 107.34375 269.207031 107.761719 C 268.976562 108.179688 268.960938 108.683594 269.167969 109.113281 L 269.191406 109.164062 C 269.441406 109.699219 271.609375 114.378906 274.449219 121.800781 C 274.625 122.257812 274.714844 122.882812 274.6875 123.621094 C 274.664062 124.355469 274.527344 125.195312 274.3125 126.058594 C 274.222656 126.4375 274.113281 126.816406 274 127.195312 C 273.878906 127.585938 273.925781 128.007812 274.125 128.363281 C 274.328125 128.71875 274.664062 128.976562 275.0625 129.074219 L 301.464844 135.566406 C 301.863281 135.664062 302.28125 135.59375 302.625 135.371094 C 302.964844 135.152344 303.203125 134.796875 303.277344 134.394531 C 303.351562 134.007812 303.433594 133.625 303.523438 133.253906 C 303.738281 132.386719 304.007812 131.578125 304.328125 130.910156 C 304.644531 130.242188 305.015625 129.730469 305.378906 129.40625 L 305.378906 129.410156 C 308.558594 126.605469 311.203125 124.402344 313.054688 122.902344 C 313.980469 122.152344 314.703125 121.578125 315.195312 121.195312 C 315.441406 121 315.632812 120.855469 315.757812 120.761719 C 315.820312 120.710938 315.867188 120.675781 315.898438 120.652344 L 315.945312 120.617188 C 316.304688 120.34375 316.519531 119.921875 316.53125 119.46875 C 316.542969 119.019531 316.347656 118.582031 316.003906 118.292969 L 315.992188 118.285156 L 315.039062 119.421875 L 315.941406 120.601562 C 321.347656 116.449219 325.453125 110.492188 327.207031 103.347656 L 324.324219 102.640625 C 322.734375 109.109375 319.03125 114.480469 314.136719 118.242188 C 313.777344 118.519531 313.5625 118.9375 313.554688 119.390625 C 313.542969 119.839844 313.738281 120.269531 314.082031 120.558594 L 314.09375 120.570312 L 315.046875 119.429688 L 314.15625 118.246094 C 314.132812 118.265625 309.84375 121.511719 303.417969 127.179688 C 302.648438 127.863281 302.089844 128.710938 301.652344 129.625 C 301.210938 130.542969 300.890625 131.535156 300.640625 132.542969 C 300.535156 132.976562 300.441406 133.417969 300.359375 133.851562 L 301.820312 134.125 L 302.175781 132.683594 L 275.769531 126.1875 L 275.414062 127.632812 L 276.835938 128.066406 C 276.964844 127.640625 277.085938 127.207031 277.195312 126.769531 C 277.445312 125.757812 277.617188 124.734375 277.652344 123.71875 C 277.6875 122.707031 277.585938 121.695312 277.21875 120.738281 C 274.160156 112.734375 271.863281 107.871094 271.847656 107.84375 L 270.507812 108.476562 L 270.691406 109.953125 L 270.707031 109.949219 C 271.179688 109.890625 271.589844 109.613281 271.824219 109.199219 C 272.054688 108.78125 272.070312 108.28125 271.871094 107.851562 C 269.28125 102.242188 268.488281 95.765625 270.078125 89.300781 C 271.929688 81.769531 276.632812 75.710938 282.761719 71.964844 C 288.894531 68.222656 296.425781 66.8125 303.945312 68.601562 L 304.289062 67.15625 L 303.925781 68.597656 C 311.414062 70.5 317.433594 75.242188 321.128906 81.402344 C 324.820312 87.558594 326.175781 95.109375 324.324219 102.640625 L 325.765625 102.992188 " fill-opacity="1" fill-rule="nonzero"/></g></g></g><g clip-path="url(#82ff3ee2dd)"><g clip-path="url(#089f27ca4b)"><g clip-path="url(#e250f4f2cc)"><path fill="#ece1cd" d="M 306.40625 137.410156 C 305.855469 139.636719 303.609375 141 301.382812 140.449219 L 272.867188 133.4375 C 270.644531 132.890625 269.28125 130.644531 269.832031 128.414062 C 270.378906 126.183594 272.628906 124.824219 274.851562 125.371094 L 303.367188 132.382812 C 305.59375 132.929688 306.953125 135.179688 306.40625 137.410156 " fill-opacity="1" fill-rule="nonzero"/></g></g></g><g clip-path="url(#fd01720505)"><g clip-path="url(#858c307b8c)"><g clip-path="url(#5dd0c2284e)"><path fill="#275252" d="M 306.40625 137.410156 L 304.964844 137.054688 C 304.785156 137.773438 304.34375 138.34375 303.753906 138.699219 C 303.167969 139.054688 302.457031 139.183594 301.738281 139.007812 L 273.222656 131.996094 C 272.503906 131.816406 271.9375 131.375 271.578125 130.785156 C 271.222656 130.195312 271.09375 129.488281 271.273438 128.769531 C 271.449219 128.046875 271.890625 127.480469 272.480469 127.121094 C 273.070312 126.765625 273.777344 126.636719 274.496094 126.816406 L 303.011719 133.828125 C 303.730469 134.003906 304.300781 134.445312 304.65625 135.035156 C 305.011719 135.621094 305.140625 136.332031 304.964844 137.054688 L 307.847656 137.761719 C 308.21875 136.253906 307.941406 134.722656 307.195312 133.496094 C 306.453125 132.261719 305.226562 131.308594 303.71875 130.941406 L 275.207031 123.929688 C 273.703125 123.558594 272.175781 123.832031 270.945312 124.582031 C 269.714844 125.324219 268.757812 126.550781 268.386719 128.058594 C 268.019531 129.566406 268.292969 131.097656 269.042969 132.328125 C 269.785156 133.558594 271.007812 134.511719 272.515625 134.882812 L 301.027344 141.894531 C 302.535156 142.265625 304.0625 141.988281 305.289062 141.242188 C 306.519531 140.496094 307.476562 139.269531 307.847656 137.761719 L 306.40625 137.410156 " fill-opacity="1" fill-rule="nonzero"/></g></g></g><g clip-path="url(#e79200014b)"><g clip-path="url(#75cb7aa191)"><g clip-path="url(#5b25f79d11)"><path fill="#ece1cd" d="M 302.136719 144.351562 C 301.660156 146.285156 299.710938 147.46875 297.773438 146.992188 L 273.027344 140.90625 C 271.097656 140.433594 269.917969 138.476562 270.394531 136.542969 C 270.871094 134.609375 272.820312 133.425781 274.753906 133.902344 L 299.496094 139.988281 C 301.433594 140.460938 302.613281 142.414062 302.136719 144.351562 " fill-opacity="1" fill-rule="nonzero"/></g></g></g><g clip-path="url(#1d0a4c64d9)"><g clip-path="url(#5d064d12d7)"><g clip-path="url(#5c8b62bd27)"><path fill="#275252" d="M 302.136719 144.351562 L 300.695312 143.996094 C 300.554688 144.570312 300.203125 145.019531 299.734375 145.304688 C 299.265625 145.585938 298.703125 145.691406 298.128906 145.550781 L 273.382812 139.464844 C 272.808594 139.324219 272.363281 138.972656 272.078125 138.503906 C 271.796875 138.035156 271.691406 137.472656 271.835938 136.898438 C 271.976562 136.324219 272.328125 135.875 272.792969 135.589844 C 273.261719 135.308594 273.824219 135.203125 274.398438 135.34375 L 299.140625 141.429688 C 299.71875 141.570312 300.167969 141.925781 300.453125 142.390625 C 300.734375 142.859375 300.835938 143.421875 300.695312 143.996094 L 303.578125 144.703125 C 303.914062 143.34375 303.664062 141.960938 302.992188 140.851562 C 302.320312 139.742188 301.214844 138.878906 299.851562 138.542969 L 275.105469 132.460938 C 273.746094 132.121094 272.367188 132.375 271.257812 133.046875 C 270.148438 133.71875 269.285156 134.828125 268.953125 136.1875 C 268.617188 137.550781 268.863281 138.929688 269.535156 140.042969 C 270.207031 141.152344 271.3125 142.015625 272.675781 142.351562 L 297.417969 148.433594 C 298.78125 148.773438 300.160156 148.519531 301.269531 147.84375 C 302.382812 147.175781 303.246094 146.066406 303.578125 144.703125 L 302.136719 144.351562 " fill-opacity="1" fill-rule="nonzero"/></g></g></g><g clip-path="url(#4dd742dca9)"><g clip-path="url(#4bd0272cbf)"><g clip-path="url(#871dc2c9f6)"><path fill="#ece1cd" d="M 297.980469 150.757812 C 297.503906 152.691406 295.550781 153.875 293.617188 153.398438 L 273.742188 148.511719 C 271.808594 148.035156 270.632812 146.082031 271.105469 144.148438 C 271.582031 142.214844 273.53125 141.03125 275.464844 141.507812 L 295.339844 146.394531 C 297.273438 146.871094 298.453125 148.824219 297.980469 150.757812 " fill-opacity="1" fill-rule="nonzero"/></g></g></g><g clip-path="url(#9f4c4ab09e)"><g clip-path="url(#85c8a34f46)"><g clip-path="url(#2b518c6fef)"><path fill="#275252" d="M 297.980469 150.757812 L 296.535156 150.402344 C 296.394531 150.976562 296.046875 151.425781 295.578125 151.710938 C 295.109375 151.992188 294.546875 152.09375 293.972656 151.957031 L 274.097656 147.066406 C 273.523438 146.925781 273.078125 146.574219 272.789062 146.105469 C 272.511719 145.636719 272.40625 145.074219 272.546875 144.503906 C 272.6875 143.929688 273.042969 143.480469 273.507812 143.195312 C 273.976562 142.914062 274.535156 142.808594 275.109375 142.949219 L 294.988281 147.835938 C 295.558594 147.980469 296.007812 148.332031 296.292969 148.796875 C 296.574219 149.269531 296.679688 149.828125 296.535156 150.402344 L 299.421875 151.113281 C 299.753906 149.75 299.503906 148.367188 298.832031 147.257812 C 298.160156 146.148438 297.054688 145.285156 295.695312 144.953125 L 275.820312 140.0625 C 274.460938 139.730469 273.082031 139.980469 271.972656 140.652344 C 270.863281 141.324219 270 142.433594 269.664062 143.792969 C 269.332031 145.15625 269.578125 146.539062 270.25 147.648438 C 270.921875 148.757812 272.027344 149.617188 273.386719 149.953125 L 293.265625 154.839844 C 294.625 155.175781 296.003906 154.925781 297.113281 154.253906 C 298.222656 153.582031 299.085938 152.472656 299.421875 151.113281 L 297.980469 150.757812 " fill-opacity="1" fill-rule="nonzero"/></g></g></g><g clip-path="url(#009de17f43)"><g clip-path="url(#7d1a9b7e4b)"><g clip-path="url(#4828ed7fb7)"><path fill="#ece1cd" d="M 276.023438 149.070312 C 277.371094 151.660156 279.769531 153.6875 282.824219 154.4375 C 285.878906 155.1875 288.941406 154.507812 291.335938 152.835938 L 276.023438 149.070312 " fill-opacity="1" fill-rule="nonzero"/></g></g></g><g clip-path="url(#1c4ed5d20e)"><g clip-path="url(#96d4a8d217)"><g clip-path="url(#9036526247)"><path fill="#275252" d="M 276.023438 149.070312 L 274.707031 149.757812 C 276.234375 152.707031 278.988281 155.023438 282.46875 155.878906 C 285.953125 156.738281 289.464844 155.960938 292.183594 154.054688 C 292.664062 153.722656 292.902344 153.136719 292.796875 152.5625 C 292.6875 151.992188 292.257812 151.535156 291.691406 151.394531 L 276.378906 147.628906 C 275.8125 147.488281 275.21875 147.695312 274.859375 148.152344 C 274.5 148.609375 274.441406 149.242188 274.707031 149.757812 L 276.023438 149.070312 L 275.671875 150.515625 L 290.980469 154.28125 L 291.335938 152.835938 L 290.488281 151.621094 C 288.421875 153.058594 285.804688 153.636719 283.179688 152.996094 C 280.558594 152.347656 278.5 150.617188 277.339844 148.386719 L 276.023438 149.070312 L 275.671875 150.515625 L 276.023438 149.070312 " fill-opacity="1" fill-rule="nonzero"/></g></g></g><g clip-path="url(#b2cf57c2ed)"><g clip-path="url(#840483acc3)"><g clip-path="url(#4922ec2c6f)"><path fill="#ece1cd" d="M 309.457031 56.195312 C 309.140625 57.484375 307.839844 58.273438 306.550781 57.957031 C 305.261719 57.640625 304.476562 56.335938 304.792969 55.046875 L 307.859375 42.570312 C 308.179688 41.277344 309.480469 40.488281 310.769531 40.804688 C 312.058594 41.121094 312.84375 42.425781 312.527344 43.714844 L 309.457031 56.195312 " fill-opacity="1" fill-rule="nonzero"/></g></g></g><g clip-path="url(#44b499ebce)"><g clip-path="url(#e59c8abf0e)"><g clip-path="url(#be0634497b)"><path fill="#275252" d="M 309.457031 56.195312 L 308.015625 55.839844 C 307.953125 56.089844 307.804688 56.28125 307.601562 56.40625 C 307.394531 56.53125 307.15625 56.574219 306.90625 56.511719 C 306.65625 56.453125 306.464844 56.300781 306.339844 56.097656 C 306.214844 55.890625 306.171875 55.652344 306.234375 55.402344 L 309.300781 42.921875 C 309.363281 42.671875 309.515625 42.480469 309.71875 42.355469 C 309.925781 42.234375 310.164062 42.1875 310.414062 42.25 C 310.664062 42.3125 310.855469 42.460938 310.980469 42.664062 C 311.101562 42.871094 311.148438 43.109375 311.085938 43.363281 L 308.015625 55.839844 L 310.898438 56.550781 L 313.964844 44.070312 C 314.222656 43.03125 314.03125 41.972656 313.519531 41.128906 C 313.007812 40.277344 312.160156 39.617188 311.125 39.363281 C 310.085938 39.105469 309.027344 39.300781 308.183594 39.8125 C 307.335938 40.324219 306.675781 41.175781 306.421875 42.214844 L 303.351562 54.691406 C 303.09375 55.730469 303.285156 56.789062 303.800781 57.636719 C 304.308594 58.484375 305.160156 59.144531 306.195312 59.398438 C 307.234375 59.65625 308.292969 59.464844 309.136719 58.949219 C 309.984375 58.4375 310.644531 57.585938 310.898438 56.550781 L 309.457031 56.195312 " fill-opacity="1" fill-rule="nonzero"/></g></g></g><g clip-path="url(#0a03355cfa)"><g clip-path="url(#ff4a6cd7bb)"><g clip-path="url(#195bd8636a)"><path fill="#ece1cd" d="M 346.742188 106.476562 C 348.03125 106.792969 348.820312 108.097656 348.503906 109.386719 C 348.183594 110.679688 346.882812 111.46875 345.59375 111.152344 L 333.132812 108.085938 C 331.84375 107.769531 331.054688 106.464844 331.371094 105.175781 C 331.6875 103.886719 332.992188 103.097656 334.28125 103.414062 L 346.742188 106.476562 " fill-opacity="1" fill-rule="nonzero"/></g></g></g><g clip-path="url(#580e3746f7)"><g clip-path="url(#289ac08e4f)"><g clip-path="url(#d208d09ec3)"><path fill="#275252" d="M 346.742188 106.476562 L 346.386719 107.921875 C 346.636719 107.980469 346.828125 108.132812 346.957031 108.339844 C 347.078125 108.542969 347.121094 108.785156 347.0625 109.035156 C 347 109.285156 346.847656 109.476562 346.644531 109.601562 C 346.4375 109.726562 346.199219 109.769531 345.949219 109.710938 L 333.488281 106.644531 C 333.234375 106.582031 333.042969 106.433594 332.917969 106.226562 C 332.796875 106.019531 332.753906 105.78125 332.8125 105.53125 C 332.875 105.28125 333.023438 105.089844 333.230469 104.960938 C 333.4375 104.839844 333.675781 104.792969 333.925781 104.855469 L 346.386719 107.921875 L 347.097656 105.035156 L 334.636719 101.96875 C 333.597656 101.714844 332.539062 101.90625 331.695312 102.421875 C 330.847656 102.933594 330.1875 103.78125 329.929688 104.820312 C 329.675781 105.859375 329.867188 106.921875 330.378906 107.765625 C 330.890625 108.617188 331.738281 109.273438 332.777344 109.53125 L 345.238281 112.59375 C 346.277344 112.847656 347.332031 112.660156 348.179688 112.144531 C 349.027344 111.632812 349.6875 110.78125 349.945312 109.742188 C 350.199219 108.703125 350.007812 107.644531 349.496094 106.800781 C 348.984375 105.949219 348.136719 105.289062 347.097656 105.035156 L 346.742188 106.476562 " fill-opacity="1" fill-rule="nonzero"/></g></g></g><g clip-path="url(#de78a8656c)"><g clip-path="url(#a109620ff4)"><g clip-path="url(#17fdf93bb6)"><path fill="#ece1cd" d="M 259.757812 85.085938 C 261.050781 85.402344 261.835938 86.707031 261.519531 87.996094 C 261.203125 89.289062 259.898438 90.078125 258.609375 89.761719 L 246.148438 86.695312 C 244.859375 86.378906 244.074219 85.078125 244.390625 83.785156 C 244.710938 82.496094 246.007812 81.703125 247.296875 82.023438 L 259.757812 85.085938 " fill-opacity="1" fill-rule="nonzero"/></g></g></g><g clip-path="url(#9c95c0b652)"><g clip-path="url(#a821d5fd14)"><g clip-path="url(#9d6f8cd17b)"><path fill="#275252" d="M 259.757812 85.085938 L 259.40625 86.53125 C 259.65625 86.589844 259.84375 86.742188 259.972656 86.945312 C 260.09375 87.152344 260.140625 87.394531 260.078125 87.644531 C 260.015625 87.894531 259.867188 88.085938 259.660156 88.210938 C 259.457031 88.335938 259.21875 88.378906 258.964844 88.316406 L 246.503906 85.253906 C 246.253906 85.191406 246.0625 85.042969 245.9375 84.835938 C 245.816406 84.628906 245.769531 84.390625 245.832031 84.140625 C 245.894531 83.886719 246.042969 83.699219 246.25 83.570312 C 246.457031 83.449219 246.691406 83.402344 246.945312 83.464844 L 259.40625 86.53125 L 260.113281 83.644531 L 247.652344 80.578125 C 246.613281 80.324219 245.558594 80.515625 244.710938 81.03125 C 243.863281 81.542969 243.203125 82.390625 242.953125 83.429688 C 242.695312 84.46875 242.882812 85.527344 243.398438 86.375 C 243.90625 87.222656 244.757812 87.882812 245.792969 88.140625 L 258.253906 91.203125 C 259.292969 91.457031 260.351562 91.269531 261.195312 90.753906 C 262.046875 90.242188 262.703125 89.390625 262.960938 88.351562 C 263.214844 87.3125 263.027344 86.253906 262.511719 85.410156 C 262.003906 84.558594 261.152344 83.898438 260.113281 83.644531 L 259.757812 85.085938 " fill-opacity="1" fill-rule="nonzero"/></g></g></g><g clip-path="url(#434ea0e8a4)"><g clip-path="url(#364963440d)"><g clip-path="url(#68e99d0d25)"><path fill="#ece1cd" d="M 267.777344 68.339844 C 268.765625 69.226562 268.851562 70.746094 267.96875 71.734375 C 267.085938 72.726562 265.566406 72.816406 264.578125 71.933594 L 255 63.390625 C 254.007812 62.507812 253.917969 60.984375 254.804688 59.992188 C 255.683594 59 257.207031 58.914062 258.195312 59.792969 L 267.777344 68.339844 " fill-opacity="1" fill-rule="nonzero"/></g></g></g><g clip-path="url(#bac2675697)"><g clip-path="url(#12fffd0e44)"><g clip-path="url(#6abbc9376d)"><path fill="#275252" d="M 267.777344 68.339844 L 266.789062 69.449219 C 266.921875 69.570312 267.007812 69.710938 267.054688 69.871094 C 267.105469 70.027344 267.109375 70.199219 267.066406 70.359375 C 267.035156 70.5 266.96875 70.628906 266.863281 70.75 C 266.742188 70.882812 266.597656 70.96875 266.441406 71.015625 C 266.285156 71.066406 266.113281 71.070312 265.953125 71.03125 C 265.8125 70.996094 265.683594 70.929688 265.566406 70.824219 L 265.5625 70.824219 L 255.988281 62.28125 C 255.851562 62.160156 255.765625 62.019531 255.71875 61.859375 C 255.671875 61.703125 255.664062 61.53125 255.703125 61.371094 C 255.742188 61.226562 255.804688 61.097656 255.910156 60.980469 C 256.03125 60.84375 256.171875 60.761719 256.328125 60.710938 C 256.488281 60.664062 256.660156 60.660156 256.820312 60.699219 C 256.960938 60.734375 257.089844 60.796875 257.210938 60.90625 L 257.207031 60.902344 L 266.789062 69.449219 L 268.761719 67.230469 L 259.183594 58.683594 C 258.695312 58.25 258.125 57.957031 257.53125 57.8125 C 256.851562 57.648438 256.144531 57.667969 255.480469 57.863281 C 254.816406 58.0625 254.1875 58.449219 253.695312 59.003906 C 253.261719 59.488281 252.96875 60.066406 252.824219 60.660156 C 252.65625 61.339844 252.675781 62.046875 252.875 62.714844 C 253.074219 63.382812 253.460938 64.007812 254.015625 64.5 L 263.589844 73.042969 L 263.589844 73.039062 C 264.074219 73.476562 264.648438 73.769531 265.242188 73.914062 C 265.921875 74.082031 266.628906 74.0625 267.292969 73.863281 C 267.957031 73.664062 268.585938 73.277344 269.078125 72.726562 C 269.511719 72.238281 269.804688 71.664062 269.949219 71.066406 C 270.117188 70.390625 270.097656 69.679688 269.898438 69.015625 C 269.699219 68.351562 269.316406 67.726562 268.765625 67.234375 L 268.761719 67.230469 L 267.777344 68.339844 " fill-opacity="1" fill-rule="nonzero"/></g></g></g><g clip-path="url(#4fd874c7b9)"><g clip-path="url(#a1cfdaf1b5)"><g clip-path="url(#5a61e35bce)"><path fill="#ece1cd" d="M 334.730469 84.804688 C 333.441406 85.128906 332.65625 86.4375 332.980469 87.722656 C 333.304688 89.011719 334.609375 89.796875 335.898438 89.472656 L 348.34375 86.34375 C 349.632812 86.023438 350.414062 84.714844 350.09375 83.425781 C 349.769531 82.140625 348.464844 81.355469 347.179688 81.675781 L 334.730469 84.804688 " fill-opacity="1" fill-rule="nonzero"/></g></g></g><g clip-path="url(#6217037ef6)"><g clip-path="url(#834eb05bac)"><g clip-path="url(#ba7ff310ad)"><path fill="#275252" d="M 334.730469 84.804688 L 334.367188 83.367188 C 333.648438 83.546875 333.019531 83.921875 332.53125 84.421875 C 332.046875 84.917969 331.703125 85.535156 331.535156 86.214844 C 331.390625 86.808594 331.382812 87.453125 331.539062 88.089844 L 331.542969 88.085938 C 331.722656 88.804688 332.097656 89.4375 332.59375 89.921875 C 333.089844 90.40625 333.707031 90.753906 334.386719 90.917969 C 334.980469 91.066406 335.625 91.070312 336.257812 90.914062 L 348.703125 87.785156 C 349.421875 87.609375 350.054688 87.230469 350.539062 86.730469 C 351.023438 86.234375 351.371094 85.617188 351.535156 84.9375 C 351.683594 84.34375 351.691406 83.695312 351.53125 83.066406 L 351.53125 83.0625 C 351.351562 82.339844 350.976562 81.710938 350.480469 81.226562 C 349.984375 80.742188 349.363281 80.398438 348.6875 80.230469 C 348.09375 80.082031 347.449219 80.078125 346.820312 80.238281 L 346.816406 80.234375 L 334.367188 83.363281 L 334.367188 83.367188 L 334.730469 84.804688 L 335.089844 86.246094 L 347.539062 83.117188 C 347.691406 83.082031 347.835938 83.082031 347.976562 83.117188 C 348.136719 83.15625 348.289062 83.238281 348.40625 83.355469 C 348.527344 83.472656 348.609375 83.613281 348.65625 83.785156 L 348.652344 83.785156 C 348.691406 83.941406 348.691406 84.085938 348.65625 84.230469 C 348.617188 84.386719 348.53125 84.539062 348.417969 84.65625 C 348.300781 84.777344 348.160156 84.859375 347.984375 84.90625 L 335.535156 88.03125 C 335.378906 88.070312 335.234375 88.066406 335.09375 88.035156 C 334.933594 87.996094 334.785156 87.910156 334.667969 87.796875 C 334.550781 87.679688 334.464844 87.539062 334.421875 87.363281 L 334.417969 87.359375 C 334.382812 87.207031 334.382812 87.066406 334.417969 86.921875 C 334.457031 86.765625 334.539062 86.613281 334.65625 86.496094 C 334.773438 86.378906 334.914062 86.292969 335.089844 86.246094 L 334.730469 84.804688 " fill-opacity="1" fill-rule="nonzero"/></g></g></g><g clip-path="url(#3b0e59225a)"><g clip-path="url(#23bad745cb)"><g clip-path="url(#5ada43b8c9)"><path fill="#ece1cd" d="M 258.121094 107.605469 C 259.40625 107.28125 260.1875 105.972656 259.867188 104.679688 C 259.542969 103.394531 258.238281 102.609375 256.953125 102.933594 L 244.503906 106.0625 C 243.21875 106.386719 242.433594 107.691406 242.753906 108.980469 C 243.078125 110.269531 244.382812 111.050781 245.671875 110.730469 L 258.121094 107.605469 " fill-opacity="1" fill-rule="nonzero"/></g></g></g><g clip-path="url(#77af8057f5)"><g clip-path="url(#a40961ecf2)"><g clip-path="url(#374e154b31)"><path fill="#275252" d="M 258.121094 107.605469 L 258.480469 109.042969 C 259.199219 108.863281 259.828125 108.488281 260.316406 107.988281 C 260.800781 107.492188 261.144531 106.875 261.3125 106.195312 C 261.457031 105.597656 261.464844 104.953125 261.304688 104.320312 L 261.308594 104.320312 C 261.125 103.601562 260.75 102.96875 260.253906 102.484375 C 259.757812 102 259.140625 101.65625 258.464844 101.488281 C 257.867188 101.339844 257.222656 101.335938 256.589844 101.492188 L 256.59375 101.492188 L 244.144531 104.621094 L 244.148438 104.621094 C 243.425781 104.800781 242.796875 105.175781 242.3125 105.675781 C 241.824219 106.171875 241.480469 106.792969 241.3125 107.46875 C 241.164062 108.066406 241.15625 108.710938 241.316406 109.34375 C 241.496094 110.0625 241.871094 110.695312 242.371094 111.179688 C 242.867188 111.664062 243.484375 112.007812 244.160156 112.175781 C 244.753906 112.324219 245.398438 112.328125 246.027344 112.171875 L 246.03125 112.171875 L 258.480469 109.042969 L 258.121094 107.605469 L 257.761719 106.164062 L 245.308594 109.289062 L 245.3125 109.289062 C 245.15625 109.328125 245.011719 109.324219 244.871094 109.289062 C 244.710938 109.253906 244.558594 109.167969 244.441406 109.050781 C 244.324219 108.9375 244.242188 108.796875 244.195312 108.621094 L 244.195312 108.617188 C 244.15625 108.464844 244.160156 108.320312 244.191406 108.179688 C 244.230469 108.019531 244.316406 107.871094 244.429688 107.75 C 244.546875 107.632812 244.6875 107.550781 244.863281 107.503906 L 244.867188 107.503906 L 257.316406 104.375 C 257.46875 104.335938 257.613281 104.339844 257.753906 104.375 C 257.914062 104.414062 258.0625 104.496094 258.179688 104.609375 C 258.296875 104.726562 258.382812 104.867188 258.425781 105.042969 L 258.429688 105.042969 C 258.464844 105.199219 258.464844 105.347656 258.429688 105.488281 C 258.390625 105.648438 258.308594 105.796875 258.191406 105.914062 C 258.074219 106.035156 257.9375 106.117188 257.761719 106.160156 L 258.121094 107.605469 " fill-opacity="1" fill-rule="nonzero"/></g></g></g><g clip-path="url(#edc01a550e)"><g clip-path="url(#e59d66807c)"><g clip-path="url(#6f93d11acd)"><path fill="#ece1cd" d="M 325.074219 124.070312 C 324.082031 123.183594 323.992188 121.664062 324.878906 120.667969 C 325.761719 119.679688 327.28125 119.589844 328.273438 120.472656 L 337.851562 129.019531 C 338.84375 129.902344 338.929688 131.421875 338.046875 132.414062 C 337.164062 133.40625 335.640625 133.496094 334.652344 132.613281 L 325.074219 124.070312 " fill-opacity="1" fill-rule="nonzero"/></g></g></g><g clip-path="url(#4944f783dd)"><g clip-path="url(#3a8e2c3d11)"><g clip-path="url(#1bd56e04ad)"><path fill="#275252" d="M 325.074219 124.070312 L 326.0625 122.960938 C 325.925781 122.835938 325.839844 122.695312 325.792969 122.539062 C 325.746094 122.378906 325.742188 122.207031 325.78125 122.046875 C 325.816406 121.90625 325.878906 121.777344 325.984375 121.65625 C 326.105469 121.523438 326.246094 121.4375 326.40625 121.390625 C 326.5625 121.339844 326.734375 121.335938 326.894531 121.375 C 327.035156 121.410156 327.164062 121.476562 327.285156 121.582031 L 336.863281 130.128906 C 337 130.25 337.085938 130.390625 337.132812 130.546875 C 337.179688 130.703125 337.183594 130.875 337.144531 131.035156 C 337.109375 131.179688 337.042969 131.308594 336.9375 131.429688 C 336.820312 131.5625 336.675781 131.648438 336.519531 131.695312 C 336.359375 131.742188 336.1875 131.75 336.027344 131.707031 C 335.886719 131.671875 335.757812 131.605469 335.640625 131.503906 L 326.0625 122.960938 L 325.074219 124.070312 L 324.085938 125.175781 L 333.664062 133.722656 C 334.152344 134.15625 334.722656 134.449219 335.320312 134.59375 C 335.996094 134.757812 336.703125 134.742188 337.371094 134.542969 C 338.035156 134.34375 338.660156 133.957031 339.152344 133.402344 L 339.15625 133.402344 C 339.585938 132.914062 339.878906 132.339844 340.027344 131.746094 C 340.191406 131.066406 340.175781 130.359375 339.972656 129.691406 C 339.777344 129.027344 339.390625 128.402344 338.835938 127.90625 L 338.835938 127.910156 L 329.261719 119.363281 C 328.773438 118.929688 328.199219 118.636719 327.605469 118.492188 C 326.925781 118.324219 326.21875 118.34375 325.554688 118.542969 C 324.890625 118.742188 324.265625 119.128906 323.773438 119.679688 C 323.335938 120.167969 323.042969 120.742188 322.898438 121.339844 C 322.730469 122.019531 322.75 122.726562 322.949219 123.394531 C 323.148438 124.058594 323.535156 124.683594 324.085938 125.179688 L 325.074219 124.070312 " fill-opacity="1" fill-rule="nonzero"/></g></g></g><g clip-path="url(#7e4ffd1f2f)"><g clip-path="url(#9b50d7ff6a)"><g clip-path="url(#cba9790cf2)"><path fill="#ece1cd" d="M 324.085938 66.421875 C 323.109375 67.324219 323.050781 68.847656 323.949219 69.824219 C 324.851562 70.796875 326.371094 70.859375 327.34375 69.953125 L 336.773438 61.234375 C 337.75 60.332031 337.808594 58.808594 336.910156 57.832031 C 336.007812 56.859375 334.488281 56.796875 333.511719 57.699219 L 324.085938 66.421875 " fill-opacity="1" fill-rule="nonzero"/></g></g></g><g clip-path="url(#a3292c4b93)"><g clip-path="url(#5660e9f672)"><g clip-path="url(#700a103076)"><path fill="#275252" d="M 324.085938 66.421875 L 323.078125 65.332031 C 322.503906 65.863281 322.117188 66.542969 321.941406 67.257812 C 321.792969 67.871094 321.792969 68.511719 321.941406 69.128906 C 322.09375 69.742188 322.402344 70.335938 322.859375 70.832031 L 322.863281 70.832031 C 323.394531 71.410156 324.070312 71.792969 324.785156 71.96875 C 325.394531 72.117188 326.035156 72.117188 326.652344 71.964844 C 327.265625 71.8125 327.859375 71.503906 328.351562 71.046875 L 337.78125 62.324219 C 338.359375 61.789062 338.742188 61.109375 338.917969 60.398438 C 339.066406 59.785156 339.066406 59.144531 338.917969 58.527344 C 338.765625 57.914062 338.457031 57.320312 338 56.828125 L 338 56.824219 C 337.464844 56.246094 336.785156 55.863281 336.074219 55.6875 C 335.464844 55.539062 334.820312 55.539062 334.207031 55.691406 C 333.59375 55.839844 333 56.148438 332.507812 56.605469 L 332.503906 56.609375 L 323.078125 65.332031 L 325.09375 67.511719 L 334.519531 58.789062 C 334.640625 58.679688 334.773438 58.609375 334.917969 58.574219 C 335.066406 58.539062 335.21875 58.539062 335.363281 58.574219 C 335.535156 58.617188 335.691406 58.703125 335.820312 58.84375 C 335.929688 58.960938 336 59.097656 336.035156 59.242188 C 336.070312 59.386719 336.070312 59.542969 336.035156 59.691406 C 335.992188 59.859375 335.90625 60.011719 335.769531 60.144531 L 326.339844 68.863281 C 326.214844 68.976562 326.085938 69.042969 325.9375 69.082031 C 325.792969 69.117188 325.636719 69.117188 325.492188 69.082031 C 325.324219 69.039062 325.167969 68.953125 325.039062 68.816406 L 325.042969 68.816406 C 324.929688 68.695312 324.859375 68.558594 324.824219 68.414062 C 324.789062 68.265625 324.789062 68.109375 324.824219 67.964844 C 324.867188 67.796875 324.953125 67.644531 325.089844 67.515625 L 325.09375 67.511719 L 324.085938 66.421875 " fill-opacity="1" fill-rule="nonzero"/></g></g></g><g clip-path="url(#842039ecae)"><g clip-path="url(#3db4699915)"><g clip-path="url(#34e7d33ba4)"><path fill="#ece1cd" d="M 287.089844 57.324219 C 287.535156 58.578125 286.882812 59.953125 285.632812 60.398438 C 284.382812 60.847656 283.007812 60.195312 282.5625 58.941406 L 278.253906 46.84375 C 277.8125 45.589844 278.464844 44.214844 279.710938 43.765625 C 280.964844 43.320312 282.339844 43.972656 282.785156 45.222656 L 287.089844 57.324219 " fill-opacity="1" fill-rule="nonzero"/></g></g></g><g clip-path="url(#c167fc8bae)"><g clip-path="url(#37486e94af)"><g clip-path="url(#e4ccb15130)"><path fill="#275252" d="M 287.089844 57.324219 L 285.691406 57.824219 C 285.753906 58.007812 285.761719 58.179688 285.71875 58.351562 C 285.683594 58.496094 285.613281 58.632812 285.511719 58.746094 C 285.410156 58.855469 285.289062 58.945312 285.132812 59 C 284.953125 59.066406 284.78125 59.070312 284.609375 59.027344 C 284.464844 58.992188 284.324219 58.921875 284.214844 58.820312 C 284.101562 58.71875 284.015625 58.597656 283.960938 58.441406 L 279.652344 46.34375 C 279.589844 46.160156 279.585938 45.988281 279.625 45.816406 C 279.664062 45.671875 279.734375 45.53125 279.832031 45.421875 C 279.933594 45.308594 280.054688 45.222656 280.210938 45.167969 C 280.390625 45.101562 280.566406 45.097656 280.738281 45.140625 C 280.882812 45.175781 281.019531 45.246094 281.132812 45.347656 C 281.246094 45.445312 281.328125 45.570312 281.386719 45.722656 L 285.691406 57.824219 L 288.488281 56.824219 L 284.179688 44.722656 C 283.953125 44.089844 283.574219 43.539062 283.101562 43.121094 C 282.625 42.699219 282.058594 42.40625 281.449219 42.253906 C 280.734375 42.078125 279.953125 42.105469 279.214844 42.367188 C 278.582031 42.59375 278.03125 42.976562 277.613281 43.449219 C 277.191406 43.925781 276.894531 44.496094 276.746094 45.105469 C 276.566406 45.820312 276.59375 46.601562 276.855469 47.339844 L 281.164062 59.441406 C 281.390625 60.078125 281.769531 60.625 282.246094 61.046875 C 282.71875 61.464844 283.285156 61.761719 283.898438 61.914062 C 284.613281 62.089844 285.390625 62.0625 286.128906 61.800781 L 286.132812 61.796875 C 286.765625 61.570312 287.3125 61.191406 287.734375 60.714844 C 288.152344 60.242188 288.449219 59.671875 288.601562 59.058594 C 288.777344 58.34375 288.75 57.5625 288.484375 56.824219 L 288.488281 56.824219 L 287.089844 57.324219 " fill-opacity="1" fill-rule="nonzero"/></g></g></g><g fill="#275252" fill-opacity="1"><g transform="translate(40.727607, 157.666878)"><g><path d="M 74.90625 -116.15625 L 74.90625 -92.921875 L 34.921875 -92.921875 L 34.921875 -69.828125 L 73.21875 -69.828125 L 73.21875 -46.609375 L 34.921875 -46.609375 L 34.921875 -23.234375 L 74.90625 -23.234375 L 74.90625 0 L 8.453125 0 L 8.453125 -116.15625 Z M 74.90625 -116.15625 "/></g></g></g><g fill="#275252" fill-opacity="1"><g transform="translate(252.606416, 333.780491)"><g><path d="M 74.90625 -116.15625 L 74.90625 -92.921875 L 34.921875 -92.921875 L 34.921875 -69.828125 L 73.21875 -69.828125 L 73.21875 -46.609375 L 34.921875 -46.609375 L 34.921875 -23.234375 L 74.90625 -23.234375 L 74.90625 0 L 8.453125 0 L 8.453125 -116.15625 Z M 74.90625 -116.15625 "/></g></g></g></svg>